# xmcd
#
# Track frame offsets:
#	150
#	12708
#	23695
#	37136
#	51379
#	68782
#	83728
#	96099
#	110185
#	126548
#	144278
#
# Disc length: 2189 seconds
#
# Revision: 1
# Processed by: cddbd v1.5.2PL0 Copyright (c) Steve Scherf et al.
# Submitted via: audiograbber 1.83.01
#
DISCID=9f088b0b
DTITLE=Fred Vine - Genesee Delta Stomp
DYEAR=2101
DGENRE=Blues
TTITLE0=Time to Go Fishin'
TTITLE1=Just Your Fool
TTITLE2=Genesee Delta Stomp
TTITLE3=I've Got a Right to Sing the Blues
TTITLE4=Goin' to the Circus
TTITLE5=Canandaigua Morning
TTITLE6=Knockin' Heads Boogie
TTITLE7=Who's Who of the Blues
TTITLE8=Driftin'
TTITLE9=Garnet Red House
TTITLE10=Empire State Express
EXTD=Fred Vine - Guitar, Ukulele and Vocals\nBrian Williams - Upright Bass\nKevin
EXTD=Maul - Dobo\n\nFred Vine is a master of the "Piedmont Style" and Delta Bo
EXTD=ttleneck slide guitar. His versatile guitar techniques and creative songwr
EXTD=iting skills are showcased in a repertoire rich with traditional blues, co
EXTD=mpelling instrumentals and captivating songs.  His early electric blues ba
EXTD=sed rock bands were influenced by  the Stones, Hendrix and Clapton however
EXTD=, upon discovering the deeper vein of country blues, Fred's focus shifted 
EXTD=to the acoustic style that is his hallmark today.\n\nBrian Williams' 40-ye
EXTD=ar musical background includes Old-Time Stringband, Rockabilly and, more r
EXTD=ecently, Gypsy Jazz and Swing bands.  Brian adds solid accompaniment to Fr
EXTD=ed's songs whether gut-thumping traditional blues or more sophisticated or
EXTD=iginal compositions. This album presents the perfect pairing of these two 
EXTD=fine musicians and the evolution of Fred's consummate musical style.
EXTT0=Written by Fred Vine
EXTT1=Written by Little Wlter Jacobs
EXTT2=Written by Fred Vine
EXTT3=Written by Harold Arlen and Ted Koehler
EXTT4=Written by Fred Vine
EXTT5=Written by Fred Vine
EXTT6=Written by Fred Vine
EXTT7=Written by Fred Vine
EXTT8=Written by Charles Brown-Johnny Moore-Eddie William
EXTT9=Written by Fred Vine
EXTT10=Written by Eddie "Son" House
PLAYORDER=
